<svg xmlns="http://www.w3.org/2000/svg" viewBox="0 0 435.06 165.99"><defs><style>.cls-1{fill:#fff;}</style></defs><g id="Layer_2" data-name="Layer 2"><g id="Layer_2-2" data-name="Layer 2"><path class="cls-1" d="M31,113.34v38.34H22.35V135.89H8.84v15.79H.15V113.34H8.84v15H22.35v-15Z"/><path class="cls-1" d="M43.91,149.55a18.31,18.31,0,0,1-6.66-7,22,22,0,0,1,0-20.24,18.36,18.36,0,0,1,6.66-7,18.19,18.19,0,0,1,18.44,0,17.93,17.93,0,0,1,6.6,7,22.29,22.29,0,0,1,0,20.24,18.11,18.11,0,0,1-6.61,7,18.13,18.13,0,0,1-18.41,0ZM60,140.48a14,14,0,0,0,0-16.19,8.5,8.5,0,0,0-6.83-3,8.59,8.59,0,0,0-6.88,3,14.13,14.13,0,0,0,0,16.25,8.55,8.55,0,0,0,6.88,3A8.47,8.47,0,0,0,60,140.48Z"/><path class="cls-1" d="M115.56,113.34v38.34h-8.69v-23l-8,23h-7l-8-23.05v23.05H75.17V113.34H85.44l10,26.54,9.91-26.54Z"/><path class="cls-1" d="M129.48,120.82v7.76h11.63v7.2H129.48v8.42h13.15v7.48H120.79V113.34h21.84v7.48Z"/><path class="cls-1" d="M157.82,122.32a17,17,0,0,1,6.37-6.94,17.57,17.57,0,0,1,9.27-2.48,16.89,16.89,0,0,1,10.87,3.6,17.49,17.49,0,0,1,6,9.84h-9.55a8.3,8.3,0,0,0-14-1.92,14.19,14.19,0,0,0,0,16.06,8.51,8.51,0,0,0,10.95,1.75,8.16,8.16,0,0,0,3-3.66h9.55a17.28,17.28,0,0,1-6,9.8A16.93,16.93,0,0,1,173.46,152a17.57,17.57,0,0,1-9.27-2.48,17.09,17.09,0,0,1-6.37-6.91,23.51,23.51,0,0,1,0-20.24Z"/><path class="cls-1" d="M203.38,144.47h11.38v7.21H194.7V113.34h8.68Z"/><path class="cls-1" d="M226.6,120.82v7.76h11.63v7.2H226.6v8.42h13.15v7.48H217.91V113.34h21.84v7.48Z"/><path class="cls-1" d="M266.57,144.91H253.26l-2.13,6.77H242l12.9-38.34H265l12.9,38.34h-9.2Zm-2.24-7.21-4.41-14-4.37,14Z"/><path class="cls-1" d="M312.69,151.68H304L289.48,128v23.65h-8.69V113.34h8.69L304,137.1V113.34h8.68Z"/><path class="cls-1" d="M326.66,113.34v38.34H318V113.34Z"/><path class="cls-1" d="M363.84,151.68h-8.68L340.63,128v23.65h-8.69V113.34h8.69l14.53,23.76V113.34h8.68Z"/><path class="cls-1" d="M392.8,125.46a6.8,6.8,0,0,0-2.77-2.92,8.58,8.58,0,0,0-4.24-1,8.43,8.43,0,0,0-6.76,3,11.83,11.83,0,0,0-2.54,7.94c0,3.54.89,6.29,2.67,8.28a9.36,9.36,0,0,0,7.34,3,8.48,8.48,0,0,0,5.41-1.74,9.92,9.92,0,0,0,3.22-5h-11v-6.88H403v8.69a18.86,18.86,0,0,1-3.28,6.49,17.48,17.48,0,0,1-5.87,4.87,17.14,17.14,0,0,1-8,1.85,18,18,0,0,1-9.42-2.48,17.23,17.23,0,0,1-6.46-6.91,23.32,23.32,0,0,1,0-20.24,17.25,17.25,0,0,1,6.43-6.94,17.88,17.88,0,0,1,9.4-2.48,17.36,17.36,0,0,1,10.79,3.33,15.82,15.82,0,0,1,5.82,9.23Z"/><path class="cls-1" d="M64.46,9.89A45.33,45.33,0,0,1,82.33,28.35q6.33,11.9,6.33,27.44T82.33,83.15a45.14,45.14,0,0,1-17.94,18.54q-11.61,6.57-26.9,6.58H.92V3.31H37.49Q52.93,3.31,64.46,9.89ZM57,78.21q7.52-7.92,7.51-22.42T57,33.21q-7.5-8.07-21-8.07H24.7v61H36Q49.45,86.14,57,78.21Z"/><path class="cls-1" d="M159.15,108.27,126.34,61.92v46.35H102.56V3.31h23.78V49.36l32.53-46h27.95L149,54.74l39.21,53.53Z"/><polygon class="cls-1" points="0 157.37 0 165.99 416.68 165.99 416.68 108.48 435.06 108.48 393.64 67.05 393.64 23.07 365.87 23.07 365.87 39.8 326.07 0 222.73 103.34 234 103.34 325.58 11.76 374.55 60.73 374.55 31.88 384 31.88 384 71.2 412.98 100.18 407.87 100.18 407.87 157.37 0 157.37"/></g></g></svg>